<?xml version="1.0" encoding="utf-8"?>
<!-- Generator: Adobe Illustrator 18.0.0, SVG Export Plug-In . SVG Version: 6.00 Build 0)  -->
<!DOCTYPE svg PUBLIC "-//W3C//DTD SVG 1.1//EN" "http://www.w3.org/Graphics/SVG/1.1/DTD/svg11.dtd">
<svg version="1.1" id="Layer_1" xmlns="http://www.w3.org/2000/svg" xmlns:xlink="http://www.w3.org/1999/xlink" x="0px" y="0px"
	 width="367.4px" height="148.3px" viewBox="214.6 325.8 367.4 148.3" enable-background="new 214.6 325.8 367.4 148.3"
	 xml:space="preserve">
<g>
	<g>
		<path fill="#4FC6ED" d="M233.4,461.7h0.3c0,6.6,8.7,12.2,19.3,12.2c10.6,0,19.3-4.8,19.3-11.8h0.3c0,7,8.7,12,19.3,12
			c10.7,0,19.3-5,19.3-12h0.3c0,7,8.7,11.8,19.3,11.8c10.7,0,19.3-5.5,19.3-12.2h0.3c0,6.6,8.7,12.2,19.3,12.2
			c10.7,0,19.3-4.8,19.3-11.8h0.3c0,1.3,0.3,2.5,0.8,3.6c8-8,8.2-16.6,8.2-16.6h-87h-87c0,0,0.2,8.4,7.8,16.2
			C233.1,464.2,233.4,462.9,233.4,461.7z"/>
		
			<line fill="none" stroke="#FFFFFF" stroke-width="3" stroke-linecap="round" stroke-linejoin="round" stroke-miterlimit="10" x1="226.8" y1="457.6" x2="395.8" y2="457.6"/>
		<path fill="#FFF2D9" d="M316.3,350.5V441h54.8c3.3,0,5.2-3.7,3.3-6.3L316.3,350.5z"/>
		<path fill="#FFF2D9" d="M306.3,441h-65.9c-3.3,0-5.3-3.6-3.5-6.4l69.4-108.8V441z"/>
		
			<line fill="none" stroke="#5E5A5C" stroke-width="3" stroke-linecap="round" stroke-linejoin="round" stroke-miterlimit="10" x1="311.3" y1="326.1" x2="311.3" y2="449.1"/>
		<path fill="none" stroke="#5E5A5C" stroke-width="3" stroke-linecap="round" stroke-linejoin="round" stroke-miterlimit="10" d="
			M316.3,350.5V441h54.8c3.3,0,5.2-3.7,3.3-6.3L316.3,350.5z"/>
		<path fill="none" stroke="#5E5A5C" stroke-width="3" stroke-linecap="round" stroke-linejoin="round" stroke-miterlimit="10" d="
			M306.3,441h-65.9c-3.3,0-5.3-3.6-3.5-6.4l69.4-108.8V441z"/>
		<g>
			<path fill="none" stroke="#5E5A5C" stroke-width="3" stroke-linecap="round" stroke-linejoin="round" stroke-miterlimit="10" d="
				M232.6,465.2c-8.4-8.2-7.8-15.6-7.8-15.6h87h87c0,0,0.6,7.7-8.2,16.1"/>
		</g>
		<path fill="none" stroke="#5E5A5C" stroke-width="3" stroke-linecap="round" stroke-linejoin="round" stroke-miterlimit="10" d="
			M409.1,473.6c-10.7,0-19.3-5-19.3-12h-0.3c0,7-8.7,12-19.3,12c-10.7,0-19.3-5.4-19.3-12h-0.3c0,6.6-8.7,12-19.3,12
			c-10.7,0-19.3-5-19.3-12h-0.3c0,7-8.7,12-19.3,12c-10.7,0-19.3-5-19.3-12h-0.3c0,7-8.7,12-19.3,12c-10.7,0-19.3-5.4-19.3-12h-0.3
			c0,6.6-8.7,12-19.3,12"/>
	</g>
	<text transform="matrix(1 0 0 1 409.0658 457.6481)" fill="#5E5A5C" font-family="'MuseoSansRounded-500'" font-size="77.1185">vesel</text>
</g>
</svg>
